<svg class="w-10 h-10" viewBox="0 0 132 132" fill="none" xmlns="http://www.w3.org/2000/svg">
                          <path d="M3.06178 65.6064L65.6064 3.06179L128.151 65.6064L65.6064 128.151L3.06178 65.6064Z" stroke="currentColor" stroke-width="4.33002"/>
                          <path d="M3.06178 65.6064L65.6064 3.06179L128.151 65.6064L65.6064 128.151L3.06178 65.6064Z" stroke="currentColor" stroke-opacity="0.2" stroke-width="4.33002"/>
                          <path fill-rule="evenodd" clip-rule="evenodd" d="M63.376 126.227V2.88672H67.706V126.227H63.376Z" fill="currentColor"/>
                          <path fill-rule="evenodd" clip-rule="evenodd" d="M63.376 126.227V2.88672H67.706V126.227H63.376Z" fill="currentColor" fill-opacity="0.2"/>
                          <path fill-rule="evenodd" clip-rule="evenodd" d="M127.211 67.8369L3.87109 67.8369L3.87109 63.5069L127.211 63.5069L127.211 67.8369Z" fill="currentColor"/>
                          <path fill-rule="evenodd" clip-rule="evenodd" d="M127.211 67.8369L3.87109 67.8369L3.87109 63.5069L127.211 63.5069L127.211 67.8369Z" fill="currentColor" fill-opacity="0.2"/>
                          <path fill-rule="evenodd" clip-rule="evenodd" d="M53.1348 53.2725V13.9087H57.4713V57.6025H13.3838V53.2725H53.1348Z" fill="currentColor"/>
                          <path fill-rule="evenodd" clip-rule="evenodd" d="M53.1348 53.2725V13.9087H57.4713V57.6025H13.3838V53.2725H53.1348Z" fill="currentColor" fill-opacity="0.2"/>
                          <path fill-rule="evenodd" clip-rule="evenodd" d="M77.6186 78.2026L77.6186 117.566L73.2822 117.566L73.2822 73.8726L117.37 73.8726L117.37 78.2026L77.6186 78.2026Z" fill="currentColor"/>
                          <path fill-rule="evenodd" clip-rule="evenodd" d="M77.6186 78.2026L77.6186 117.566L73.2822 117.566L73.2822 73.8726L117.37 73.8726L117.37 78.2026L77.6186 78.2026Z" fill="currentColor" fill-opacity="0.2"/>
                          <path fill-rule="evenodd" clip-rule="evenodd" d="M78.0058 53.2002L117.37 53.2002L117.37 57.5367L73.6758 57.5367L73.6758 13.4492L78.0058 13.4492L78.0058 53.2002Z" fill="currentColor"/>
                          <path fill-rule="evenodd" clip-rule="evenodd" d="M78.0058 53.2002L117.37 53.2002L117.37 57.5367L73.6758 57.5367L73.6758 13.4492L78.0058 13.4492L78.0058 53.2002Z" fill="currentColor" fill-opacity="0.2"/>
                          <path fill-rule="evenodd" clip-rule="evenodd" d="M52.7476 78.2749L13.3838 78.2749L13.3838 73.9384L57.0776 73.9384L57.0776 118.026L52.7476 118.026L52.7476 78.2749Z" fill="currentColor"/>
                          <path fill-rule="evenodd" clip-rule="evenodd" d="M52.7476 78.2749L13.3838 78.2749L13.3838 73.9384L57.0776 73.9384L57.0776 118.026L52.7476 118.026L52.7476 78.2749Z" fill="currentColor" fill-opacity="0.2"/>
                          <path fill-rule="evenodd" clip-rule="evenodd" d="M42.9181 43.0506V23.7495H47.2361V47.3678H23.749V43.0506H42.9181Z" fill="currentColor"/>
                          <path fill-rule="evenodd" clip-rule="evenodd" d="M42.9181 43.0506V23.7495H47.2361V47.3678H23.749V43.0506H42.9181Z" fill="currentColor" fill-opacity="0.2"/>
                          <path fill-rule="evenodd" clip-rule="evenodd" d="M87.8348 88.4245L87.8348 107.726L83.5168 107.726L83.5168 84.1073L107.004 84.1073L107.004 88.4245L87.8348 88.4245Z" fill="currentColor"/>
                          <path fill-rule="evenodd" clip-rule="evenodd" d="M87.8348 88.4245L87.8348 107.726L83.5168 107.726L83.5168 84.1073L107.004 84.1073L107.004 88.4245L87.8348 88.4245Z" fill="currentColor" fill-opacity="0.2"/>
                          <path fill-rule="evenodd" clip-rule="evenodd" d="M88.2278 42.9841L107.529 42.9841L107.529 47.302L83.9105 47.302L83.9105 23.8149L88.2278 23.8149L88.2278 42.9841Z" fill="currentColor"/>
                          <path fill-rule="evenodd" clip-rule="evenodd" d="M88.2278 42.9841L107.529 42.9841L107.529 47.302L83.9105 47.302L83.9105 23.8149L88.2278 23.8149L88.2278 42.9841Z" fill="currentColor" fill-opacity="0.2"/>
                          <path fill-rule="evenodd" clip-rule="evenodd" d="M42.5257 88.491L23.2246 88.491L23.2246 84.1731L46.8429 84.1731L46.8429 107.66L42.5257 107.66L42.5257 88.491Z" fill="currentColor"/>
                          <path fill-rule="evenodd" clip-rule="evenodd" d="M42.5257 88.491L23.2246 88.491L23.2246 84.1731L46.8429 84.1731L46.8429 107.66L42.5257 107.66L42.5257 88.491Z" fill="currentColor" fill-opacity="0.2"/>
                        </svg>