<svg class="w-10 h-10" viewBox="0 0 72 80" fill="none" xmlns="http://www.w3.org/2000/svg">
                          <path d="M72 10L54 -2.91511e-07V20L72 10Z" fill="currentColor"/>
                          <path d="M72 10L54 -2.91511e-07V20L72 10Z" fill="currentColor" fill-opacity="0.2"/>
                          <path d="M54 10L36 -2.91511e-07V20L54 10Z" fill="currentColor"/>
                          <path d="M54 10L36 -2.91511e-07V20L54 10Z" fill="currentColor" fill-opacity="0.2"/>
                          <path d="M36 10L18 -2.91511e-07L18 20L36 10Z" fill="currentColor"/>
                          <path d="M36 10L18 -2.91511e-07L18 20L36 10Z" fill="currentColor" fill-opacity="0.2"/>
                          <path d="M18 10L0 -2.91511e-07L0 20L18 10Z" fill="currentColor"/>
                          <path d="M18 10L0 -2.91511e-07L0 20L18 10Z" fill="currentColor" fill-opacity="0.2"/>
                          <path d="M0 30L18 20L18 40L0 30Z" fill="currentColor"/>
                          <path d="M0 30L18 20L18 40L0 30Z" fill="currentColor" fill-opacity="0.2"/>
                          <path d="M18 30L36 20V40L18 30Z" fill="currentColor"/>
                          <path d="M18 30L36 20V40L18 30Z" fill="currentColor" fill-opacity="0.2"/>
                          <path d="M36 30L54 20V40L36 30Z" fill="currentColor"/>
                          <path d="M36 30L54 20V40L36 30Z" fill="currentColor" fill-opacity="0.2"/>
                          <path d="M54 30L72 20V40L54 30Z" fill="currentColor"/>
                          <path d="M54 30L72 20V40L54 30Z" fill="currentColor" fill-opacity="0.2"/>
                          <path d="M72 50L54 40V60L72 50Z" fill="currentColor"/>
                          <path d="M72 50L54 40V60L72 50Z" fill="currentColor" fill-opacity="0.2"/>
                          <path d="M54 50L36 40V60L54 50Z" fill="currentColor"/>
                          <path d="M54 50L36 40V60L54 50Z" fill="currentColor" fill-opacity="0.2"/>
                          <path d="M36 50L18 40L18 60L36 50Z" fill="currentColor"/>
                          <path d="M36 50L18 40L18 60L36 50Z" fill="currentColor" fill-opacity="0.2"/>
                          <path d="M18 50L0 40L0 60L18 50Z" fill="currentColor"/>
                          <path d="M18 50L0 40L0 60L18 50Z" fill="currentColor" fill-opacity="0.2"/>
                          <path d="M0 70L18 60L18 80L0 70Z" fill="currentColor"/>
                          <path d="M0 70L18 60L18 80L0 70Z" fill="currentColor" fill-opacity="0.2"/>
                          <path d="M18 70L36 60V80L18 70Z" fill="currentColor"/>
                          <path d="M18 70L36 60V80L18 70Z" fill="currentColor" fill-opacity="0.2"/>
                          <path d="M36 70L54 60V80L36 70Z" fill="currentColor"/>
                          <path d="M36 70L54 60V80L36 70Z" fill="currentColor" fill-opacity="0.2"/>
                          <path d="M54 70L72 60V80L54 70Z" fill="currentColor"/>
                          <path d="M54 70L72 60V80L54 70Z" fill="currentColor" fill-opacity="0.2"/>
                        </svg>