<svg class="w-10 h-10" viewBox="0 0 102 102" fill="none" xmlns="http://www.w3.org/2000/svg">
                          <path d="M50.7 0.000363995C22.8 0.000365214 -3.44009e-06 22.7004 -2.21617e-06 50.7004C-9.9662e-07 78.6004 22.7 101.4 50.7 101.4C78.7 101.4 101.4 78.7004 101.4 50.7004C101.3 22.8004 78.6 0.000362775 50.7 0.000363995ZM50.7 11.1004C72.6 11.1004 90.3 28.9004 90.3 50.7004C90.3 72.6004 72.5 90.3004 50.7 90.3004C28.8 90.3004 11.1 72.5004 11.1 50.7004C11 28.8004 28.8 11.1004 50.7 11.1004Z" fill="currentColor"/>
                          <path d="M50.7 0.000363995C22.8 0.000365214 -3.44009e-06 22.7004 -2.21617e-06 50.7004C-9.9662e-07 78.6004 22.7 101.4 50.7 101.4C78.7 101.4 101.4 78.7004 101.4 50.7004C101.3 22.8004 78.6 0.000362775 50.7 0.000363995ZM50.7 11.1004C72.6 11.1004 90.3 28.9004 90.3 50.7004C90.3 72.6004 72.5 90.3004 50.7 90.3004C28.8 90.3004 11.1 72.5004 11.1 50.7004C11 28.8004 28.8 11.1004 50.7 11.1004Z" fill="currentColor" fill-opacity="0.2"/>
                        </svg>